<?xml version="1.0" standalone="no"?>
<!DOCTYPE svg PUBLIC "-//W3C//DTD SVG 20010904//EN"
 "http://www.w3.org/TR/2001/REC-SVG-20010904/DTD/svg10.dtd">
<svg version="1.0" xmlns="http://www.w3.org/2000/svg"
 width="300.000000pt" height="300.000000pt" viewBox="0 0 300.000000 300.000000"
 preserveAspectRatio="xMidYMid meet">
<metadata>
Created by potrace 1.10, written by Peter Selinger 2001-2011
</metadata>
<g transform="translate(0.000000,300.000000) scale(0.100000,-0.100000)"
fill="#000000" stroke="none">
<path d="M984 1500 c0 -135 2 -189 3 -121 l4 124 82 -6 c45 -4 99 -7 120 -7
l37 0 0 -115 c0 -70 4 -115 10 -115 6 0 10 87 10 240 0 153 -4 240 -10 240 -6
0 -10 -45 -10 -115 l0 -115 -120 0 -119 0 -4 118 c-1 64 -3 7 -3 -128z"/>
<path d="M1450 1598 c-1 -2 -2 -49 -3 -106 -2 -100 -2 -102 21 -102 19 0 22 5
22 45 l0 45 45 0 45 0 0 -45 c0 -38 3 -45 20 -45 19 0 20 7 20 105 0 98 -1
105 -20 105 -17 0 -20 -7 -20 -40 l0 -40 -45 0 -45 0 0 40 c0 33 -3 40 -20 40
-11 0 -20 -1 -20 -2z"/>
<path d="M1685 1525 c-35 -34 -30 -101 9 -127 20 -14 83 -8 96 7 20 24 -2 40
-29 23 -15 -9 -26 -10 -38 -2 -36 23 -26 34 31 34 56 0 56 0 50 28 -14 61 -76
80 -119 37z m73 -17 c20 -20 14 -28 -23 -28 -19 0 -35 4 -35 8 0 12 22 32 35
32 6 0 16 -5 23 -12z"/>
<path d="M1840 1471 c0 -74 2 -81 20 -81 16 0 19 8 22 58 3 54 4 57 31 60 27
3 27 3 27 -57 0 -54 2 -61 20 -61 18 0 20 7 20 63 0 88 -34 119 -88 81 -16
-11 -22 -12 -20 -3 2 7 -5 15 -14 17 -16 3 -18 -6 -18 -77z"/>
<path d="M2020 1470 c0 -73 2 -80 19 -80 17 0 20 8 23 52 3 44 7 54 28 65 26
13 33 34 14 40 -7 2 -19 -3 -28 -12 -14 -15 -16 -15 -16 -1 0 9 -8 16 -20 16
-18 0 -20 -7 -20 -80z"/>
<path d="M2130 1541 c0 -5 13 -43 28 -83 32 -82 31 -98 -3 -98 -22 0 -40 -22
-28 -34 13 -13 53 -5 70 13 22 23 89 198 80 207 -14 15 -37 -8 -48 -48 -18
-64 -24 -64 -45 -6 -12 32 -26 54 -37 56 -9 2 -17 -1 -17 -7z"/>
</g>
</svg>
